# xmcd
#
# Track frame offsets: 
#        150
#        14306
#        26932
#        47546
#        70775
#        89587
#        102524
#        123351
#        149996
#        179280
#        195379
#        220353
#        248448
#        269160
#        289235
#
# Disc length: 4089 seconds
#
# Revision: 0
# Processed by: cddbd v1.4PL0 Copyright (c) Steve Scherf et al.
# Submitted via: ExactAudioCopy v0.95a3
#
DISCID=eb0ff70f
DTITLE=Валерий Ободзинский - Лучшие песни. Часть II
DYEAR=2001
DGENRE=Chanson
TTITLE0=Настоящая любовь (сл. и муз. М.Кроуэл, пер. О.Гаджикасимова)
TTITLE1=Анна (В.Семенов - В.Дюнин)
TTITLE2=Лесная колдунья (Д.Галицкий - Гегельски)
TTITLE3=Мадам, уже падают листья (сл. и муз. А.Вертинский)
TTITLE4=Дни бегут (сл. и муз. А.Вертинский)
TTITLE5=Ты успокой меня (сл. и муз. А.Вертинский)
TTITLE6=Песня из к/ф `Золото Маккены` К.Джонс - Л.Дербенев)
TTITLE7=То, что я должен сказать (сл. и муз. А.Вертинский)
TTITLE8=Мираж (А.Зацепин - Л.Дербенев)
TTITLE9=О жизнь моя, постой, не уходи (Ст. романс, сл. и муз. народные
TTITLE9=)
TTITLE10=Играет орган (Д.Тухманов - М.Пляцковский)
TTITLE11=Аравийская песня (сл. и муз.  - А.Вертинский)
TTITLE12=Последнее письмо (А.Вертинский - С.Есенин, А.Вертинский)
TTITLE13=Среди миров (А.Вертинский - И.Аненский)
TTITLE14=Сад юности моей (неизв. автор)
EXTD=
EXTT0=
EXTT1=
EXTT2=
EXTT3=
EXTT4=
EXTT5=
EXTT6=
EXTT7=
EXTT8=
EXTT9=
EXTT10=
EXTT11=
EXTT12=
EXTT13=
EXTT14=
PLAYORDER=
